ply
format ascii 1.0
comment VCGLIB generated
element vertex 33
property float x
property float y
property float z
element face 62
property list uchar int vertex_indices
end_header
0 1 -1 
-0.195089 0.980786 -1 
0.19509 0.980785 -1 
-0.555569 0.83147 -1 
-0.707106 0.707108 -1 
-0.923879 0.382684 -1 
-0.831469 0.555571 -1 
-0.980785 0.195091 -1 
0 0 1 
-0.980785 -0.195089 -1 
-1 1e-06 -1 
-0.92388 -0.382683 -1 
-0.555571 -0.831469 -1 
-0.382684 -0.923879 -1 
0.382683 -0.92388 -1 
0.55557 -0.83147 -1 
0.707107 -0.707107 -1 
0.83147 -0.55557 -1 
0.92388 -0.382683 -1 
0.980785 -0.19509 -1 
0.980785 0.19509 -1 
0.92388 0.382683 -1 
0.707107 0.707107 -1 
-0.382682 0.92388 -1 
0.382683 0.92388 -1 
0.55557 0.83147 -1 
0.83147 0.55557 -1 
1 0 -1 
-0.83147 -0.55557 -1 
-0.707107 -0.707106 -1 
-0.195091 -0.980785 -1 
0.19509 -0.980785 -1 
-0 -1 -1 
3 23 8 1 
3 0 8 2 
3 8 0 1 
3 2 8 24 
3 3 8 23 
3 4 8 3 
3 6 8 4 
3 5 8 6 
3 7 8 5 
3 10 8 7 
3 9 8 10 
3 11 8 9 
3 28 8 11 
3 29 8 28 
3 12 8 29 
3 13 8 12 
3 30 8 13 
3 32 8 30 
3 31 8 32 
3 14 8 31 
3 15 8 14 
3 16 8 15 
3 17 8 16 
3 18 8 17 
3 19 8 18 
3 27 8 19 
3 20 8 27 
3 21 8 20 
3 26 8 21 
3 22 8 26 
3 25 8 22 
3 24 8 25 
3 0 2 1 
3 2 23 1 
3 2 24 23 
3 24 3 23 
3 24 25 3 
3 25 4 3 
3 25 22 4 
3 22 6 4 
3 22 26 6 
3 26 5 6 
3 26 21 5 
3 21 7 5 
3 21 20 7 
3 20 10 7 
3 20 27 10 
3 27 9 10 
3 27 19 9 
3 19 11 9 
3 19 18 11 
3 18 28 11 
3 18 17 28 
3 17 29 28 
3 17 16 29 
3 16 12 29 
3 16 15 12 
3 15 13 12 
3 15 14 13 
3 14 30 13 
3 14 31 30 
3 31 32 30 
