ply
format ascii 1.0
comment VCGLIB generated
element vertex 64
property float x
property float y
property float z
element face 64
property list uchar int vertex_indices
end_header
0.230785 1.22018 -0.473036 
0.425875 1.20096 -0.473036 
0.425875 1.20096 1.52696 
0.613468 1.14406 -0.473036 
0.613468 1.14406 1.52696 
0.786355 1.05165 -0.473036 
0.786355 1.05165 1.52696 
0.937891 0.927283 -0.473036 
0.937891 0.927283 1.52696 
1.06225 0.775746 -0.473036 
1.06225 0.775746 1.52696 
1.15466 0.602859 -0.473036 
1.15466 0.602859 1.52696 
1.21157 0.415266 -0.473036 
1.21157 0.415266 1.52696 
1.23079 0.220176 1.52696 
1.23079 0.220176 -0.473036 
1.21157 0.025086 -0.473036 
1.21157 0.025086 1.52696 
1.15466 -0.162507 -0.473036 
1.15466 -0.162507 1.52696 
1.06225 -0.335394 -0.473036 
1.06225 -0.335394 1.52696 
0.937891 -0.486931 -0.473036 
0.937891 -0.486931 1.52696 
0.786355 -0.611294 -0.473036 
0.786355 -0.611294 1.52696 
0.613468 -0.703704 -0.473036 
0.613468 -0.703704 1.52696 
0.425875 -0.760609 -0.473036 
0.425875 -0.760609 1.52696 
0.230784 -0.779824 -0.473036 
0.230784 -0.779824 1.52696 
0.035694 -0.760609 1.52696 
0.035694 -0.760609 -0.473036 
-0.151899 -0.703703 1.52696 
-0.151899 -0.703703 -0.473036 
-0.324786 -0.611293 1.52696 
-0.324786 -0.611293 -0.473036 
-0.476323 -0.48693 -0.473036 
-0.476323 -0.48693 1.52696 
-0.600685 -0.335394 1.52696 
-0.600685 -0.335394 -0.473036 
-0.693095 -0.162507 1.52696 
-0.693095 -0.162507 -0.473036 
-0.750001 0.025086 1.52696 
-0.750001 0.025086 -0.473036 
-0.769215 0.220177 1.52696 
-0.769215 0.220177 -0.473036 
-0.75 0.415267 1.52696 
-0.75 0.415267 -0.473036 
-0.693094 0.60286 -0.473036 
-0.693094 0.60286 1.52696 
-0.600684 0.775747 1.52696 
-0.600684 0.775747 -0.473036 
-0.476321 0.927284 1.52696 
-0.476321 0.927284 -0.473036 
-0.324785 1.05165 1.52696 
-0.324785 1.05165 -0.473036 
-0.151898 1.14406 1.52696 
-0.151898 1.14406 -0.473036 
0.035696 1.20096 1.52696 
0.035696 1.20096 -0.473036 
0.230785 1.22018 1.52696 
3 0 63 2 
3 0 2 1 
3 1 2 4 
3 1 4 3 
3 3 4 6 
3 3 6 5 
3 5 6 8 
3 5 8 7 
3 7 8 10 
3 7 10 9 
3 9 10 12 
3 9 12 11 
3 11 12 14 
3 11 14 13 
3 13 14 15 
3 13 15 16 
3 16 15 18 
3 16 18 17 
3 17 18 20 
3 17 20 19 
3 19 20 22 
3 19 22 21 
3 21 22 24 
3 21 24 23 
3 23 24 26 
3 23 26 25 
3 25 26 28 
3 25 28 27 
3 27 28 30 
3 27 30 29 
3 29 30 32 
3 29 32 31 
3 31 32 33 
3 31 33 34 
3 34 33 35 
3 34 35 36 
3 36 35 37 
3 36 37 38 
3 38 37 40 
3 38 40 39 
3 39 40 41 
3 39 41 42 
3 42 41 43 
3 42 43 44 
3 44 43 45 
3 44 45 46 
3 46 45 47 
3 46 47 48 
3 48 47 49 
3 48 49 50 
3 50 49 52 
3 50 52 51 
3 51 52 53 
3 51 53 54 
3 54 53 55 
3 54 55 56 
3 56 55 57 
3 56 57 58 
3 58 57 59 
3 58 59 60 
3 60 59 61 
3 60 61 62 
3 63 0 62 
3 63 62 61 
