ply
format ascii 1.0
comment VCGLIB generated
element vertex 505
property float x
property float y
property float z
element face 1002
property list uchar int vertex_indices
end_header
0.46875 -0.757812 0.242187 
-0.5625 -0.671875 0.242187 
0.5 -0.6875 0.09375 
0.546875 -0.578125 0.054687 
-0.351562 -0.71875 0.03125 
-0.546875 -0.578125 0.054687 
0.4375 -0.765625 0.164062 
-0.5 -0.6875 0.09375 
0.351562 -0.71875 0.03125 
0.15625 -0.648438 0.054687 
0.351562 -0.617188 -0.023438 
-0.351562 -0.617188 -0.023438 
0.203125 -0.742188 0.09375 
-0.15625 -0.648438 0.054687 
-0.273438 -0.796875 0.164062 
-0.203125 -0.742188 0.09375 
0.242188 -0.796875 0.242187 
0.140625 -0.742188 0.242187 
-0.242188 -0.796875 0.242187 
0.203125 -0.742188 0.390625 
0.078125 -0.65625 0.242187 
-0.140625 -0.742188 0.242187 
-0.078125 -0.65625 0.242187 
0.15625 -0.648438 0.4375 
-0.203125 -0.742188 0.390625 
-0.15625 -0.648438 0.4375 
0.273438 -0.796875 0.328125 
-0.351562 -0.71875 0.453125 
0.4375 -0.765625 0.328125 
-0.4375 -0.765625 0.328125 
0.351562 -0.71875 0.453125 
0.351562 -0.617188 0.515625 
-0.351562 -0.617188 0.515625 
0.625 -0.5625 0.242187 
0.546875 -0.578125 0.4375 
-0.625 -0.5625 0.242187 
-0.546875 -0.578125 0.4375 
0.5625 -0.671875 0.242187 
0.5 -0.6875 0.390625 
-0.46875 -0.757812 0.242187 
-0.5 -0.6875 0.390625 
0.476562 -0.773438 0.242187 
0.445312 -0.78125 0.335937 
-0.351562 -0.804688 0.375 
0.351562 -0.78125 0.359375 
0.265625 -0.820312 0.335937 
0.351562 -0.804688 0.375 
-0.351562 -0.78125 0.359375 
-0.273438 -0.796875 0.328125 
-0.265625 -0.820312 0.335937 
0.226562 -0.820312 0.242187 
0.273438 -0.796875 0.164062 
0.265625 -0.820312 0.15625 
-0.351562 -0.804688 0.117187 
-0.351562 -0.78125 0.132812 
-0.265625 -0.820312 0.15625 
0.351562 -0.78125 0.132812 
-0.4375 -0.765625 0.164062 
-0.445312 -0.78125 0.15625 
0.445312 -0.78125 0.15625 
-0.476562 -0.773438 0.242187 
0.351562 -0.804688 0.117187 
0.351562 -0.828125 0.242187 
-0.226562 -0.820312 0.242187 
-0.351562 -0.828125 0.242187 
-0.445312 -0.78125 0.335937 
0.179688 -0.554687 -0.96875 
-0.179688 -0.554687 -0.96875 
0 -0.578125 -0.984375 
-0.164062 -0.632812 -0.929688 
-0.328125 -0.523437 -0.945312 
0.367188 -0.53125 -0.890625 
0.25 -0.6875 -0.703125 
0.265625 -0.664062 -0.820312 
0.3125 -0.570312 -0.4375 
-0.3125 -0.570312 -0.4375 
-0.351562 -0.570312 -0.695312 
0.4375 -0.53125 -0.140625 
0.125 -0.8125 -0.101563 
0.398438 -0.671875 -0.046875 
0.632812 -0.539062 -0.039063 
-0.632812 -0.539062 -0.039063 
-0.742188 -0.65625 0.375 
0.859375 -0.59375 0.429687 
0.710938 -0.625 0.484375 
-0.710938 -0.625 0.484375 
0.492188 -0.6875 0.601562 
0.4375 -0.796875 0.546875 
0.320312 -0.734375 0.757812 
0.15625 -0.757813 0.71875 
-0.3125 -0.835938 0.640625 
0.101562 -0.84375 0.429687 
0.203125 -0.851562 0.617187 
-0.203125 -0.851562 0.617187 
0 -0.742188 0.429687 
0 -0.820312 0.351562 
-0.164062 -0.773438 0.414062 
-0.101562 -0.84375 0.429687 
-0.25 -0.757812 0.46875 
0.3125 -0.835938 0.640625 
-0.429688 -0.71875 0.4375 
0.429688 -0.71875 0.4375 
-0.4375 -0.796875 0.546875 
0.6875 -0.726562 0.414062 
-0.6875 -0.726562 0.414062 
-0.601562 -0.664062 0.375 
0.742188 -0.65625 0.375 
0.640625 -0.648438 0.296875 
-0.726562 -0.601562 0.203125 
0.726562 -0.601562 0.203125 
-0.617188 -0.625 0.054687 
0.617188 -0.625 0.054687 
-0.398438 -0.671875 -0.046875 
-0.492188 -0.671875 0.0625 
-0.375 -0.703125 0.015625 
-0.125 -0.8125 -0.101563 
0.164062 -0.773438 0.414062 
-0.125 -0.765625 0.304687 
0 -0.726562 0.046875 
0.132812 -0.757812 0.210937 
0 -0.765625 0.210937 
0.0625 -0.695312 -0.882813 
0 -0.6875 -0.890625 
0.164062 -0.632812 -0.929688 
0 -0.640625 -0.945312 
0.109375 -0.734375 -0.71875 
0.234375 -0.632812 -0.914062 
-0.234375 -0.632812 -0.914062 
-0.117188 -0.710937 -0.835938 
0.210938 -0.710938 -0.445313 
0.078125 -0.75 -0.445313 
-0.117188 -0.734375 -0.6875 
-0.210938 -0.710938 -0.445313 
-0.25 -0.6875 -0.703125 
-0.265625 -0.664062 -0.820312 
0.085938 -0.742188 -0.289063 
0 -0.742188 -0.328125 
0 -0.734375 -0.679688 
0 -0.75 -0.445313 
-0.078125 -0.75 -0.445313 
0 -0.734375 -0.765625 
0.117188 -0.734375 -0.6875 
0.09375 -0.78125 -0.273438 
-0.09375 -0.78125 -0.273438 
-0.125 -0.75 -0.226563 
0.109375 -0.78125 -0.132813 
-0.109375 -0.78125 -0.132813 
0.039062 -0.78125 -0.125 
0.101562 -0.742188 -0.148438 
-0.101562 -0.742188 -0.148438 
0 -0.796875 -0.1875 
0 -0.75 -0.195313 
0 -0.78125 -0.320313 
0 -0.804688 -0.289063 
0 -0.828125 -0.203125 
-0.039062 -0.78125 -0.125 
0.132812 -0.796875 -0.226563 
0.078125 -0.804688 -0.25 
-0.132812 -0.796875 -0.226563 
0.109375 -0.828125 -0.226563 
0.09375 -0.8125 -0.15625 
0.046875 -0.8125 -0.148438 
-0.09375 -0.8125 -0.15625 
-0.109375 -0.828125 -0.226563 
-0.046875 -0.8125 -0.148438 
-0.078125 -0.804688 -0.25 
0 -0.742188 -0.140625 
0.125 -0.75 -0.226563 
-0.164062 -0.710938 -0.242188 
-0.179688 -0.710938 -0.3125 
-0.085938 -0.742188 -0.289063 
-0.257812 -0.554688 -0.3125 
0.164062 -0.710938 -0.242188 
0.179688 -0.710938 -0.3125 
-0.234375 -0.554688 -0.25 
0.203125 -0.5625 -0.1875 
0.09375 -0.726562 -0.742188 
-0.109375 -0.734375 -0.71875 
-0.09375 -0.726562 -0.742188 
-0.09375 -0.710937 -0.820313 
0.117188 -0.710937 -0.835938 
-0.046875 -0.6875 -0.867188 
0.046875 -0.6875 -0.867188 
-0.0625 -0.695312 -0.882813 
0 -0.6875 -0.875 
0.046875 -0.632812 -0.851562 
-0.09375 -0.640625 -0.8125 
0.09375 -0.710937 -0.820313 
-0.09375 -0.664062 -0.75 
0 -0.71875 -0.773438 
0 -0.65625 -0.78125 
0 -0.632812 -0.859375 
0.09375 -0.664062 -0.75 
0.09375 -0.640625 -0.8125 
-0.046875 -0.632812 -0.851562 
0.164062 -0.75 0.140625 
0.1875 -0.773438 0.15625 
-0.132812 -0.757812 0.210937 
0.125 -0.765625 0.304687 
-0.210938 -0.78125 0.375 
-0.164062 -0.75 0.140625 
0.375 -0.703125 0.015625 
0.492188 -0.671875 0.0625 
0.625 -0.648438 0.1875 
-0.578125 -0.679688 0.195312 
-0.625 -0.648438 0.1875 
0.585938 -0.6875 0.289062 
-0.640625 -0.648438 0.296875 
0.601562 -0.664062 0.375 
-0.5625 -0.695312 0.351562 
0.421875 -0.773438 0.398437 
0.5625 -0.695312 0.351562 
-0.421875 -0.773438 0.398437 
0.328125 -0.742188 0.476562 
-0.328125 -0.742188 0.476562 
0.25 -0.757812 0.46875 
0.273438 -0.773438 0.421875 
0.234375 -0.757812 0.359375 
-0.273438 -0.773438 0.421875 
0.335938 -0.757812 0.429687 
0.28125 -0.765625 0.398437 
-0.28125 -0.765625 0.398437 
-0.335938 -0.757812 0.429687 
-0.335938 -0.75 0.40625 
0.335938 -0.75 0.40625 
-0.414062 -0.75 0.390625 
0.414062 -0.75 0.390625 
0.53125 -0.679688 0.335937 
-0.53125 -0.679688 0.335937 
0.554688 -0.671875 0.28125 
-0.554688 -0.671875 0.28125 
-0.585938 -0.6875 0.289062 
0.578125 -0.679688 0.195312 
0.546875 -0.671875 0.210937 
-0.546875 -0.671875 0.210937 
-0.460938 -0.703125 0.117187 
0.476562 -0.71875 0.101562 
0.460938 -0.703125 0.117187 
0.375 -0.726562 0.085937 
-0.476562 -0.71875 0.101562 
-0.375 -0.742188 0.0625 
-0.375 -0.726562 0.085937 
0.375 -0.742188 0.0625 
-0.226562 -0.78125 0.109375 
0.226562 -0.78125 0.109375 
0.242188 -0.757812 0.125 
-0.242188 -0.757812 0.125 
0.210938 -0.78125 0.375 
-0.234375 -0.757812 0.359375 
0.179688 -0.78125 0.296875 
0.195312 -0.757812 0.296875 
-0.179688 -0.78125 0.296875 
-0.195312 -0.757812 0.296875 
0.171875 -0.78125 0.21875 
0.203125 -0.75 0.171875 
0.195312 -0.75 0.226562 
-0.203125 -0.75 0.171875 
-0.1875 -0.773438 0.15625 
-0.171875 -0.78125 0.21875 
-0.195312 -0.75 0.226562 
0.0625 -0.75 0.492187 
-0.0625 -0.75 0.492187 
0 -0.601562 0.40625 
0.109375 -0.609375 0.460937 
-0.109375 -0.609375 0.460937 
0.335938 -0.59375 0.6875 
-0.320312 -0.734375 0.757812 
-0.15625 -0.757813 0.71875 
-0.195312 -0.617188 0.664062 
-0.335938 -0.59375 0.6875 
0.679688 -0.492188 0.453125 
-0.492188 -0.6875 0.601562 
0.828125 -0.445312 0.148437 
-0.828125 -0.445312 0.148437 
-0.859375 -0.59375 0.429687 
0.601562 -0.414062 -0 
-0.601562 -0.414062 -0 
-0.773438 -0.375 0.164062 
-0.4375 -0.53125 -0.140625 
0 -0.320312 -0.570312 
0.179688 -0.257812 -0.414062 
0 -0.460937 -0.976562 
0 -0.34375 -0.804688 
0.328125 -0.523437 -0.945312 
-0.164062 -0.4375 -0.945312 
-0.367188 -0.53125 -0.890625 
0.125 -0.359375 -0.539062 
0.25 -0.390625 -0.5 
-0.125 -0.359375 -0.539062 
-0.289062 -0.382812 -0.710938 
-0.25 -0.390625 -0.5 
0.289062 -0.382812 -0.710938 
0.328125 -0.398437 -0.914062 
0.164062 -0.4375 -0.945312 
0.140625 -0.367187 -0.757812 
-0.328125 -0.398437 -0.914062 
-0.140625 -0.367187 -0.757812 
0.234375 -0.40625 -0.351563 
0.351562 -0.570312 -0.695312 
-0.234375 -0.40625 -0.351563 
0.257812 -0.554688 -0.3125 
0.234375 -0.554688 -0.25 
0.21875 -0.429688 -0.28125 
-0.203125 -0.5625 -0.1875 
-0.34375 0.539062 -0.148437 
0 0.671875 -0.195312 
0.296875 0.265625 -0.3125 
0 0.351563 -0.382812 
0 -0.1875 -0.460938 
0.210938 -0.164062 -0.390625 
-0.179688 -0.257812 -0.414062 
0 -0.28125 -0.484375 
0.773438 -0.375 0.164062 
0 0.851562 0.5625 
-0.460938 0.703125 0.4375 
0 0.828125 0.070313 
0 -0.289063 0.898438 
0.453125 0.070312 0.929688 
-0.453125 0.382812 0.867188 
0 0.078125 0.984375 
0 0.546875 0.898438 
0.460938 0.703125 0.4375 
0.796875 -0.460938 0.40625 
0.726562 -0.335938 0.40625 
-0.679688 -0.492188 0.453125 
-0.632812 -0.28125 0.453125 
0.640625 -0.054688 0.703125 
0.796875 -0.125 0.5625 
-0.796875 0.117187 0.617188 
0.640625 0.195312 0.75 
0.796875 0.117187 0.617188 
0.640625 0.445312 0.679688 
-0.640625 0.195312 0.75 
0.773438 0.4375 0.265625 
-0.617188 0.585938 0.328125 
-0.773438 0.4375 0.265625 
0.617188 0.585938 0.328125 
-0.640625 0.445312 0.679688 
0.453125 0.382812 0.867188 
-0.453125 0.070312 0.929688 
-0.640625 -0.054688 0.703125 
0.453125 -0.234375 0.851562 
-0.453125 -0.234375 0.851562 
0.632812 -0.28125 0.453125 
0.460938 -0.429688 0.523438 
-0.460938 -0.429688 0.523438 
0 -0.570312 0.570312 
0.195312 -0.617188 0.664062 
0.484375 -0.554688 0.554688 
-0.484375 -0.554688 0.554688 
-0.796875 -0.460938 0.40625 
-0.796875 -0.125 0.5625 
-0.859375 0.046875 0.320312 
-0.851562 -0.054688 0.234375 
-0.726562 -0.335938 0.40625 
0.796875 0.359375 0.539062 
-0.796875 0.359375 0.539062 
-0.210938 -0.164062 -0.390625 
-0.40625 -0.148437 -0.171875 
0.734375 -0.070312 -0.046875 
0.429688 0.210938 -0.195312 
0.59375 0.164062 -0.125 
-0.429688 0.210938 -0.195312 
-0.59375 0.164062 -0.125 
0.40625 -0.148437 -0.171875 
0.210938 -0.46875 -0.226563 
-0.210938 -0.46875 -0.226563 
-0.4375 -0.46875 -0.09375 
-0.21875 -0.429688 -0.28125 
0.4375 -0.46875 -0.09375 
0.203125 -0.5 -0.171875 
-0.203125 -0.5 -0.171875 
0.484375 0.546875 0.023438 
-0.640625 0.429688 -0.007812 
-0.296875 0.265625 -0.3125 
0.335938 0.664062 0.054688 
0.34375 0.539062 -0.148437 
-0.484375 0.546875 0.023438 
-0.335938 0.664062 0.054688 
0.890625 0.234375 0.40625 
1.01562 0.289062 0.414062 
-1.01562 0.289062 0.414062 
1.23438 0.421875 0.507812 
1.1875 0.390625 0.4375 
1.35156 0.421875 0.320313 
-1.35156 0.421875 0.320313 
-1.21094 0.40625 0.078125 
-1.28125 0.429688 0.054688 
1.21094 0.40625 0.078125 
1.03125 0.304688 -0.039062 
1.03906 0.328125 -0.101562 
-0.828125 0.132812 -0.070312 
-1.03125 0.304688 -0.039062 
1.17188 0.4375 0.359375 
1.23438 0.445312 0.25 
1.26562 0.40625 0.289063 
-1.23438 0.445312 0.25 
-1.26562 0.40625 0.289063 
-1.1875 0.390625 0.4375 
0.921875 0.21875 0.359375 
-0.921875 0.21875 0.359375 
-0.726562 0.070312 0 
0.828125 0.132812 -0.070312 
-0.71875 0.171875 -0.023437 
0.851562 -0.054688 0.234375 
0.726562 0.070312 0 
-0.734375 -0.070312 -0.046875 
-0.8125 0.273438 -0.015625 
0.71875 0.171875 -0.023437 
0.8125 0.273438 -0.015625 
-0.84375 0.273438 0.015625 
0.71875 0.1875 0.039063 
0.835938 0.273438 0.171875 
-0.757812 0.273438 0.09375 
-0.835938 0.273438 0.171875 
-0.796875 0.210937 0.203125 
0.945312 0.289062 0.304688 
-0.890625 0.265625 0.242188 
0.796875 0.210937 0.203125 
0.84375 0.210937 0.289062 
-0.84375 0.210937 0.289062 
0.859375 0.046875 0.320312 
-0.71875 0.1875 0.039063 
0.890625 0.265625 0.242188 
0.890625 0.320312 0.234375 
-0.890625 0.320312 0.234375 
0.765625 0.320312 0.09375 
0.84375 0.320312 0.171875 
-0.84375 0.320312 0.171875 
0.757812 0.273438 0.09375 
0.820312 0.273438 0.085938 
0.84375 0.273438 0.015625 
-0.851562 0.320312 0.015625 
-0.820312 0.273438 0.085938 
0.8125 0.320312 -0.015625 
0.851562 0.320312 0.015625 
0.882812 0.210938 -0.023437 
0.882812 0.265625 -0.015625 
-0.882812 0.210938 -0.023437 
-0.8125 0.320312 -0.015625 
-0.945312 0.289062 0.304688 
-1.02344 0.359375 0.34375 
1.02344 0.359375 0.34375 
-1.17188 0.4375 0.359375 
1.1875 0.445312 0.09375 
-1.25781 0.492188 0.242188 
1.03906 0.367188 0 
-1.21094 0.484375 0.085938 
-1.1875 0.445312 0.09375 
-1.03906 0.367188 0 
-1.04688 0.421875 0 
0.828125 0.320312 0.078125 
-0.828125 0.320312 0.078125 
0.9375 0.335938 0.0625 
-1 0.367188 0.125 
-0.9375 0.335938 0.0625 
-0.890625 0.328125 0.109375 
1 0.367188 0.125 
1.01562 0.375 0.234375 
-1.10938 0.390625 0.210938 
-1.01562 0.375 0.234375 
0.953125 0.34375 0.289063 
1.08594 0.390625 0.273438 
-0.953125 0.34375 0.289063 
0.960938 0.351562 0.171875 
-0.960938 0.351562 0.171875 
0.890625 0.328125 0.109375 
-0.765625 0.320312 0.09375 
-0.882812 0.265625 -0.015625 
1.04688 0.421875 0 
1.25781 0.492188 0.242188 
1.05469 0.382812 0.1875 
1.21094 0.484375 0.085938 
-1.05469 0.382812 0.1875 
1.1875 0.484375 0.34375 
1.10938 0.390625 0.210938 
-1.08594 0.390625 0.273438 
-1.1875 0.484375 0.34375 
1.03906 0.414062 0.328125 
-1.03906 0.414062 0.328125 
0.773438 0.125 -0.140625 
0.789062 0.328125 -0.125 
-0.773438 0.125 -0.140625 
-1.03906 0.328125 -0.101562 
1.28125 0.429688 0.054688 
1.36719 0.5 0.296875 
-1.36719 0.5 0.296875 
-1.23438 0.421875 0.507812 
1.25 0.546875 0.46875 
-1.25 0.546875 0.46875 
-1.02344 0.3125 0.476562 
1.02344 0.3125 0.476562 
0.859375 0.382812 0.382813 
-0.859375 0.382812 0.382813 
1.02344 0.484375 0.4375 
-1.02344 0.484375 0.4375 
1.03906 0.492188 -0.085937 
-1.03906 0.492188 -0.085937 
1.3125 0.53125 0.054688 
-1.3125 0.53125 0.054688 
0.820312 0.203125 0.328125 
-0.890625 0.234375 0.40625 
-0.820312 0.203125 0.328125 
0.640625 0.429688 -0.007812 
-0.789062 0.328125 -0.125 
3 0 6 2 
3 0 2 37 
3 7 57 39 
3 7 39 1 
3 37 2 3 
3 37 3 33 
3 5 7 1 
3 5 1 35 
3 2 8 10 
3 2 10 3 
3 11 4 7 
3 11 7 5 
3 6 56 8 
3 6 8 2 
3 4 54 57 
3 4 57 7 
3 56 51 12 
3 56 12 8 
3 15 14 54 
3 15 54 4 
3 8 12 9 
3 8 9 10 
3 13 15 4 
3 13 4 11 
3 12 17 20 
3 12 20 9 
3 22 21 15 
3 22 15 13 
3 51 16 17 
3 51 17 12 
3 21 18 14 
3 21 14 15 
3 16 26 19 
3 16 19 17 
3 24 48 18 
3 24 18 21 
3 17 19 23 
3 17 23 20 
3 25 24 21 
3 25 21 22 
3 19 30 31 
3 19 31 23 
3 32 27 24 
3 32 24 25 
3 26 44 30 
3 26 30 19 
3 27 47 48 
3 27 48 24 
3 44 28 38 
3 44 38 30 
3 40 29 47 
3 40 47 27 
3 30 38 34 
3 30 34 31 
3 36 40 27 
3 36 27 32 
3 38 37 33 
3 38 33 34 
3 35 1 40 
3 35 40 36 
3 28 0 37 
3 28 37 38 
3 1 39 29 
3 1 29 40 
3 0 28 42 
3 0 42 41 
3 65 29 39 
3 65 39 60 
3 28 44 46 
3 28 46 42 
3 43 47 29 
3 43 29 65 
3 44 26 45 
3 44 45 46 
3 49 48 47 
3 49 47 43 
3 26 16 50 
3 26 50 45 
3 63 18 48 
3 63 48 49 
3 16 51 52 
3 16 52 50 
3 55 14 18 
3 55 18 63 
3 51 56 61 
3 51 61 52 
3 53 54 14 
3 53 14 55 
3 56 6 59 
3 56 59 61 
3 58 57 54 
3 58 54 53 
3 6 0 41 
3 6 41 59 
3 60 39 57 
3 60 57 58 
3 62 59 41 
3 60 58 64 
3 61 59 62 
3 64 58 53 
3 62 52 61 
3 53 55 64 
3 62 50 52 
3 55 63 64 
3 62 45 50 
3 63 49 64 
3 62 46 45 
3 49 43 64 
3 62 42 46 
3 43 65 64 
3 62 41 42 
3 65 60 64 
3 66 123 124 
3 66 124 68 
3 124 69 67 
3 124 67 68 
3 283 126 123 
3 283 123 66 
3 69 127 70 
3 69 70 67 
3 71 73 126 
3 71 126 283 
3 127 134 285 
3 127 285 70 
3 298 72 73 
3 298 73 71 
3 134 133 76 
3 134 76 285 
3 74 129 72 
3 74 72 298 
3 133 132 75 
3 133 75 76 
3 175 77 79 
3 175 79 78 
3 112 278 303 
3 112 303 115 
3 77 80 111 
3 77 111 79 
3 110 81 278 
3 110 278 112 
3 80 272 109 
3 80 109 111 
3 108 273 81 
3 108 81 110 
3 272 83 106 
3 272 106 109 
3 82 274 273 
3 82 273 108 
3 83 84 103 
3 83 103 106 
3 104 85 274 
3 104 274 82 
3 84 86 87 
3 84 87 103 
3 102 271 85 
3 102 85 104 
3 86 88 99 
3 86 99 87 
3 90 266 271 
3 90 271 102 
3 88 89 92 
3 88 92 99 
3 93 267 266 
3 93 266 90 
3 89 260 91 
3 89 91 92 
3 97 261 267 
3 97 267 93 
3 260 94 95 
3 260 95 91 
3 95 94 261 
3 95 261 97 
3 116 215 92 
3 116 92 91 
3 93 98 96 
3 93 96 97 
3 215 213 99 
3 215 99 92 
3 90 214 98 
3 90 98 93 
3 101 87 99 
3 101 99 213 
3 90 102 100 
3 90 100 214 
3 208 103 87 
3 208 87 101 
3 102 104 105 
3 102 105 100 
3 107 106 103 
3 107 103 208 
3 104 82 207 
3 104 207 105 
3 203 109 106 
3 203 106 107 
3 82 108 205 
3 82 205 207 
3 202 111 109 
3 202 109 203 
3 108 110 113 
3 108 113 205 
3 201 79 111 
3 201 111 202 
3 110 112 114 
3 110 114 113 
3 12 78 79 
3 12 79 201 
3 112 115 15 
3 112 15 114 
3 12 195 118 
3 12 118 78 
3 118 200 15 
3 118 15 115 
3 116 91 95 
3 116 95 198 
3 95 97 96 
3 95 96 117 
3 198 95 120 
3 198 120 119 
3 120 95 117 
3 120 117 197 
3 118 195 119 
3 118 119 120 
3 197 200 118 
3 197 118 120 
3 121 122 124 
3 121 124 123 
3 124 122 183 
3 124 183 69 
3 180 121 123 
3 180 123 126 
3 69 183 128 
3 69 128 127 
3 125 180 126 
3 125 126 73 
3 127 128 177 
3 127 177 134 
3 129 130 141 
3 129 141 72 
3 131 139 132 
3 131 132 133 
3 125 73 72 
3 125 72 141 
3 133 134 177 
3 133 177 131 
3 135 136 138 
3 135 138 130 
3 138 136 170 
3 138 170 139 
3 141 130 138 
3 141 138 137 
3 138 139 131 
3 138 131 137 
3 140 125 141 
3 140 141 137 
3 131 177 140 
3 131 140 137 
3 167 156 142 
3 167 142 135 
3 143 158 144 
3 143 144 170 
3 148 145 156 
3 148 156 167 
3 158 146 149 
3 158 149 144 
3 166 147 145 
3 166 145 148 
3 146 155 166 
3 146 166 149 
3 151 150 147 
3 151 147 166 
3 155 150 151 
3 155 151 166 
3 136 135 142 
3 136 142 152 
3 143 170 136 
3 143 136 152 
3 152 142 157 
3 152 157 153 
3 165 143 152 
3 165 152 153 
3 150 154 161 
3 150 161 147 
3 164 154 150 
3 164 150 155 
3 147 161 160 
3 147 160 145 
3 162 164 155 
3 162 155 146 
3 145 160 159 
3 145 159 156 
3 163 162 146 
3 163 146 158 
3 156 159 157 
3 156 157 142 
3 165 163 158 
3 165 158 143 
3 154 159 160 
3 154 160 161 
3 162 163 154 
3 162 154 164 
3 154 153 157 
3 154 157 159 
3 165 153 154 
3 165 154 163 
3 166 148 78 
3 166 78 118 
3 115 149 166 
3 115 166 118 
3 148 167 172 
3 148 172 78 
3 168 144 149 
3 168 149 115 
3 167 135 173 
3 167 173 172 
3 169 170 144 
3 169 144 168 
3 135 130 129 
3 135 129 173 
3 132 139 170 
3 132 170 169 
3 74 300 173 
3 74 173 129 
3 169 171 75 
3 169 75 132 
3 300 301 172 
3 300 172 173 
3 168 174 171 
3 168 171 169 
3 175 78 172 
3 175 172 301 
3 168 115 303 
3 168 303 174 
3 125 140 189 
3 125 189 176 
3 189 140 177 
3 189 177 178 
3 180 125 176 
3 180 176 187 
3 178 177 128 
3 178 128 179 
3 121 180 187 
3 121 187 182 
3 179 128 183 
3 179 183 181 
3 122 121 182 
3 122 182 184 
3 181 183 122 
3 181 122 184 
3 184 182 185 
3 184 185 191 
3 194 181 184 
3 194 184 191 
3 182 187 193 
3 182 193 185 
3 186 179 181 
3 186 181 194 
3 187 176 192 
3 187 192 193 
3 188 178 179 
3 188 179 186 
3 176 189 190 
3 176 190 192 
3 190 189 178 
3 190 178 188 
3 190 191 185 
3 190 185 192 
3 194 191 190 
3 194 190 188 
3 192 185 193 
3 186 194 188 
3 119 195 196 
3 119 196 253 
3 257 200 197 
3 257 197 258 
3 198 119 253 
3 198 253 249 
3 258 197 117 
3 258 117 251 
3 116 198 249 
3 116 249 247 
3 251 117 96 
3 251 96 199 
3 195 12 244 
3 195 244 196 
3 243 15 200 
3 243 200 257 
3 12 201 242 
3 12 242 244 
3 240 114 15 
3 240 15 243 
3 201 202 236 
3 201 236 242 
3 239 113 114 
3 239 114 240 
3 202 203 232 
3 202 232 236 
3 204 205 113 
3 204 113 239 
3 203 107 206 
3 203 206 232 
3 231 207 205 
3 231 205 204 
3 107 208 211 
3 107 211 206 
3 209 105 207 
3 209 207 231 
3 208 101 210 
3 208 210 211 
3 212 100 105 
3 212 105 209 
3 101 213 219 
3 101 219 210 
3 222 214 100 
3 222 100 212 
3 213 215 216 
3 213 216 219 
3 218 98 214 
3 218 214 222 
3 215 116 247 
3 215 247 216 
3 199 96 98 
3 199 98 218 
3 216 247 217 
3 216 217 220 
3 248 199 218 
3 248 218 221 
3 219 216 220 
3 219 220 224 
3 221 218 222 
3 221 222 223 
3 210 219 224 
3 210 224 226 
3 223 222 212 
3 223 212 225 
3 211 210 226 
3 211 226 227 
3 225 212 209 
3 225 209 228 
3 206 211 227 
3 206 227 229 
3 228 209 231 
3 228 231 230 
3 232 206 229 
3 232 229 233 
3 230 231 204 
3 230 204 234 
3 236 232 233 
3 236 233 237 
3 234 204 239 
3 234 239 235 
3 242 236 237 
3 242 237 238 
3 235 239 240 
3 235 240 241 
3 244 242 238 
3 244 238 245 
3 241 240 243 
3 241 243 246 
3 196 244 245 
3 196 245 254 
3 246 243 257 
3 246 257 256 
3 247 249 250 
3 247 250 217 
3 252 251 199 
3 252 199 248 
3 249 253 255 
3 249 255 250 
3 259 258 251 
3 259 251 252 
3 253 196 254 
3 253 254 255 
3 256 257 258 
3 256 258 259 
3 94 260 263 
3 94 263 262 
3 264 261 94 
3 264 94 262 
3 260 89 347 
3 260 347 263 
3 268 267 261 
3 268 261 264 
3 89 88 265 
3 89 265 347 
3 269 266 267 
3 269 267 268 
3 88 86 348 
3 88 348 265 
3 349 271 266 
3 349 266 269 
3 86 84 270 
3 86 270 348 
3 324 85 271 
3 324 271 349 
3 84 83 322 
3 84 322 270 
3 350 274 85 
3 350 85 324 
3 83 272 312 
3 83 312 322 
3 277 273 274 
3 277 274 350 
3 272 80 275 
3 272 275 312 
3 276 81 273 
3 276 273 277 
3 80 77 369 
3 80 369 275 
3 367 278 81 
3 367 81 276 
3 279 311 280 
3 279 280 286 
3 310 311 279 
3 310 279 288 
3 282 279 286 
3 282 286 294 
3 288 279 282 
3 288 282 296 
3 281 282 294 
3 281 294 293 
3 296 282 281 
3 296 281 284 
3 66 68 281 
3 66 281 293 
3 281 68 67 
3 281 67 284 
3 283 66 293 
3 283 293 292 
3 284 67 70 
3 284 70 295 
3 71 283 292 
3 71 292 291 
3 295 70 285 
3 295 285 289 
3 298 71 291 
3 298 291 287 
3 289 285 76 
3 289 76 290 
3 291 294 286 
3 291 286 287 
3 288 296 289 
3 288 289 290 
3 291 292 293 
3 291 293 294 
3 284 295 289 
3 284 289 296 
3 297 287 286 
3 297 286 280 
3 288 290 299 
3 288 299 310 
3 74 298 287 
3 74 287 297 
3 290 76 75 
3 290 75 299 
3 300 302 365 
3 300 365 301 
3 366 368 171 
3 366 171 174 
3 74 297 302 
3 74 302 300 
3 368 299 75 
3 368 75 171 
3 175 301 365 
3 175 365 370 
3 366 174 303 
3 366 303 371 
3 175 370 369 
3 175 369 77 
3 367 371 303 
3 367 303 278 
3 315 375 376 
3 315 376 305 
3 304 378 315 
3 304 315 305 
3 305 376 306 
3 305 306 307 
3 374 304 305 
3 374 305 307 
3 307 306 309 
3 307 309 308 
3 357 374 307 
3 357 307 308 
3 308 309 280 
3 308 280 311 
3 310 357 308 
3 310 308 311 
3 297 280 309 
3 297 309 302 
3 357 310 299 
3 357 299 368 
3 312 275 359 
3 312 359 404 
3 406 276 277 
3 406 277 353 
3 313 321 375 
3 313 375 315 
3 378 314 313 
3 378 313 315 
3 316 341 317 
3 316 317 319 
3 339 342 316 
3 339 316 319 
3 319 317 338 
3 319 338 320 
3 318 339 319 
3 318 319 320 
3 320 338 321 
3 320 321 313 
3 314 318 320 
3 314 320 313 
3 270 322 323 
3 270 323 343 
3 354 350 324 
3 354 324 325 
3 343 323 327 
3 343 327 326 
3 351 354 325 
3 351 325 340 
3 326 327 330 
3 326 330 329 
3 328 351 340 
3 328 340 332 
3 329 330 355 
3 329 355 331 
3 356 328 332 
3 356 332 337 
3 333 336 331 
3 333 331 355 
3 337 334 335 
3 337 335 356 
3 321 338 331 
3 321 331 336 
3 337 318 314 
3 337 314 334 
3 338 317 329 
3 338 329 331 
3 332 339 318 
3 332 318 337 
3 317 341 326 
3 317 326 329 
3 340 342 339 
3 340 339 332 
3 341 344 343 
3 341 343 326 
3 325 345 342 
3 325 342 340 
3 348 270 343 
3 348 343 344 
3 325 324 349 
3 325 349 345 
3 346 344 341 
3 346 341 316 
3 342 345 346 
3 342 346 316 
3 263 347 265 
3 263 265 348 
3 269 268 264 
3 269 264 349 
3 263 348 344 
3 263 344 346 
3 345 349 264 
3 345 264 346 
3 262 263 346 
3 346 264 262 
3 322 312 404 
3 322 404 323 
3 353 277 350 
3 353 350 354 
3 404 421 327 
3 404 327 323 
3 351 352 353 
3 351 353 354 
3 421 500 330 
3 421 330 327 
3 328 502 352 
3 328 352 351 
3 333 355 330 
3 333 330 500 
3 328 356 335 
3 328 335 502 
3 309 306 360 
3 309 360 364 
3 362 374 357 
3 362 357 358 
3 359 364 360 
3 359 360 361 
3 362 358 406 
3 362 406 363 
3 275 369 364 
3 275 364 359 
3 358 367 276 
3 358 276 406 
3 369 365 302 
3 369 302 364 
3 368 366 367 
3 368 367 358 
3 302 309 364 
3 358 357 368 
3 369 370 365 
3 366 371 367 
3 333 503 372 
3 333 372 336 
3 377 373 335 
3 377 335 334 
3 321 336 372 
3 321 372 375 
3 377 334 314 
3 377 314 378 
3 361 360 372 
3 361 372 503 
3 377 362 363 
3 377 363 373 
3 306 376 372 
3 306 372 360 
3 377 304 374 
3 377 374 362 
3 375 372 376 
3 304 377 378 
3 491 379 399 
3 491 399 380 
3 400 501 490 
3 400 490 381 
3 491 380 383 
3 491 383 382 
3 398 381 490 
3 398 490 487 
3 382 383 395 
3 382 395 384 
3 397 398 487 
3 397 487 385 
3 384 395 388 
3 384 388 484 
3 386 397 385 
3 386 385 387 
3 484 388 389 
3 484 389 390 
3 392 386 387 
3 392 387 483 
3 390 389 402 
3 390 402 480 
3 391 392 483 
3 391 483 482 
3 389 446 436 
3 389 436 402 
3 438 449 392 
3 438 392 391 
3 388 444 446 
3 388 446 389 
3 449 448 386 
3 449 386 392 
3 395 394 444 
3 395 444 388 
3 448 396 397 
3 448 397 386 
3 383 393 394 
3 383 394 395 
3 396 443 398 
3 396 398 397 
3 380 442 393 
3 380 393 383 
3 443 441 381 
3 443 381 398 
3 380 399 416 
3 380 416 442 
3 440 400 381 
3 440 381 441 
3 359 361 408 
3 359 408 405 
3 403 363 406 
3 403 406 401 
3 361 480 402 
3 361 402 408 
3 391 482 363 
3 391 363 403 
3 404 359 405 
3 404 405 421 
3 401 406 353 
3 401 353 352 
3 500 419 399 
3 500 399 379 
3 400 420 502 
3 400 502 501 
3 402 436 409 
3 402 409 408 
3 407 438 391 
3 407 391 403 
3 431 411 408 
3 431 408 409 
3 403 422 410 
3 403 410 407 
3 429 411 431 
3 429 431 430 
3 410 422 413 
3 410 413 433 
3 412 418 411 
3 412 411 429 
3 422 415 414 
3 422 414 413 
3 419 418 412 
3 419 412 423 
3 414 415 420 
3 414 420 417 
3 399 419 423 
3 399 423 416 
3 417 420 400 
3 417 400 440 
3 421 418 419 
3 421 419 500 
3 420 415 352 
3 420 352 502 
3 421 405 411 
3 421 411 418 
3 422 401 352 
3 422 352 415 
3 405 408 411 
3 422 403 401 
3 416 423 424 
3 416 424 461 
3 425 417 440 
3 425 440 463 
3 423 412 427 
3 423 427 424 
3 428 414 417 
3 428 417 425 
3 412 429 426 
3 412 426 427 
3 467 413 414 
3 467 414 428 
3 429 430 451 
3 429 451 426 
3 452 433 413 
3 452 413 467 
3 430 431 435 
3 430 435 451 
3 432 410 433 
3 432 433 452 
3 431 409 434 
3 431 434 435 
3 439 407 410 
3 439 410 432 
3 409 436 437 
3 409 437 434 
3 468 438 407 
3 468 407 439 
3 442 416 461 
3 442 461 478 
3 463 440 441 
3 463 441 479 
3 393 442 478 
3 393 478 474 
3 479 441 443 
3 479 443 477 
3 394 393 474 
3 394 474 470 
3 477 443 396 
3 477 396 445 
3 444 394 470 
3 444 470 472 
3 445 396 448 
3 445 448 447 
3 446 444 472 
3 446 472 469 
3 447 448 449 
3 447 449 450 
3 436 446 469 
3 436 469 437 
3 450 449 438 
3 450 438 468 
3 451 435 453 
3 451 453 466 
3 455 432 452 
3 455 452 456 
3 466 453 457 
3 466 457 464 
3 454 455 456 
3 454 456 465 
3 464 457 471 
3 464 471 458 
3 473 454 465 
3 473 465 460 
3 458 471 475 
3 458 475 462 
3 459 473 460 
3 459 460 476 
3 478 461 458 
3 478 458 462 
3 460 463 479 
3 460 479 476 
3 424 464 458 
3 424 458 461 
3 460 465 425 
3 460 425 463 
3 424 427 466 
3 424 466 464 
3 456 428 425 
3 456 425 465 
3 451 466 427 
3 451 427 426 
3 428 456 452 
3 428 452 467 
3 434 437 453 
3 434 453 435 
3 455 468 439 
3 455 439 432 
3 469 457 453 
3 469 453 437 
3 455 454 450 
3 455 450 468 
3 472 471 457 
3 472 457 469 
3 454 473 447 
3 454 447 450 
3 470 475 471 
3 470 471 472 
3 473 459 445 
3 473 445 447 
3 474 462 475 
3 474 475 470 
3 459 476 477 
3 459 477 445 
3 478 462 474 
3 477 476 479 
3 390 480 481 
3 390 481 496 
3 504 482 483 
3 504 483 497 
3 484 390 496 
3 484 496 498 
3 497 483 387 
3 497 387 499 
3 384 484 498 
3 384 498 485 
3 499 387 385 
3 499 385 486 
3 382 384 485 
3 382 485 488 
3 486 385 487 
3 486 487 489 
3 491 382 488 
3 491 488 494 
3 489 487 490 
3 489 490 495 
3 379 491 494 
3 379 494 492 
3 495 490 501 
3 495 501 493 
3 494 496 481 
3 494 481 492 
3 504 497 495 
3 504 495 493 
3 494 488 498 
3 494 498 496 
3 499 489 495 
3 499 495 497 
3 488 485 498 
3 499 486 489 
3 333 500 379 
3 333 379 492 
3 501 502 335 
3 501 335 493 
3 333 492 481 
3 333 481 503 
3 504 493 335 
3 504 335 373 
3 361 503 481 
3 361 481 480 
3 504 373 363 
3 504 363 482 
3 20 23 31 
3 9 20 31 
3 10 9 31 
3 3 10 31 
3 3 31 34 
3 33 3 34 
3 32 25 22 
3 32 22 13 
3 32 13 11 
3 32 11 5 
3 36 32 5 
3 36 5 35 
3 224 220 217 
3 254 245 238 
3 254 238 237 
3 254 237 233 
3 254 233 229 
3 254 229 227 
3 254 227 226 
3 254 226 224 
3 254 224 217 
3 254 217 250 
3 255 254 250 
3 248 221 223 
3 241 246 256 
3 235 241 256 
3 234 235 256 
3 230 234 256 
3 228 230 256 
3 225 228 256 
3 223 225 256 
3 248 223 256 
3 252 248 256 
3 252 256 259 
