ply
format ascii 1.0
comment VCGLIB generated
element vertex 576
property float x
property float y
property float z
element face 1152
property list uchar int vertex_indices
end_header
1.2061 0.158786 0.125 
1.11538 0.146842 0.216506 
0.991445 0.130526 0.25 
0.875 0 0.216506 
0.776791 0.102266 0.125 
0.783494 0 0.125 
0.743584 0.097895 0 
0.75 0 0 
0.783494 0 -0.125 
0.875 0 -0.216506 
0.867514 0.11421 -0.216506 
1.11538 0.146842 -0.216506 
1.2061 0.158786 -0.125 
1.21651 0 -0.125 
1.25 0 0 
1.23931 0.163158 0 
0.845185 0.226467 0.216506 
0.867514 0.11421 0.216506 
0.724444 0.194114 0 
0.756797 0.202783 -0.125 
0.776791 0.102266 -0.125 
1.08667 0.291171 -0.216506 
0.991445 0.130526 -0.25 
1.17506 0.314855 -0.125 
1.15485 0.478354 0 
1.1239 0.465537 0.125 
1.17506 0.314855 0.125 
1.08667 0.291171 0.216506 
0.965926 0.258819 0.25 
0.92388 0.382683 0.25 
0.723854 0.29983 0.125 
0.756797 0.202783 0.125 
0.69291 0.287013 0 
0.723854 0.29983 -0.125 
0.808395 0.334848 -0.216506 
0.845185 0.226467 -0.216506 
0.965926 0.258819 -0.25 
0.92388 0.382683 -0.25 
1.03937 0.430519 -0.216506 
1.20741 0.323524 0 
1.05352 0.608253 0.125 
1.03937 0.430519 0.216506 
0.757772 0.4375 0.216506 
0.808395 0.334848 0.216506 
0.678525 0.391747 0.125 
1.05352 0.608253 -0.125 
1.1239 0.465537 -0.125 
0.965119 0.740562 0.125 
0.974279 0.5625 0.216506 
0.793353 0.608761 0.25 
0.866025 0.5 0.25 
0.694184 0.532666 0.216506 
0.621587 0.476961 0.125 
0.649519 0.375 0 
0.678525 0.391747 -0.125 
0.621587 0.476961 -0.125 
0.757772 0.4375 -0.216506 
0.866025 0.5 -0.25 
0.793353 0.608761 -0.25 
0.974279 0.5625 -0.216506 
0.965119 0.740562 -0.125 
1.08253 0.625 0 
0.8602 0.8602 0.125 
0.991692 0.760952 0 
0.892523 0.684857 0.216506 
0.618718 0.618718 0.216506 
0.554014 0.554014 0.125 
0.53033 0.53033 0 
0.595015 0.456571 0 
0.554014 0.554014 -0.125 
0.694184 0.532666 -0.216506 
0.707107 0.707107 -0.25 
0.795495 0.795495 -0.216506 
0.892523 0.684857 -0.216506 
0.883883 0.883884 0 
0.740562 0.965119 0.125 
0.795495 0.795495 0.216506 
0.608762 0.793353 0.25 
0.707107 0.707107 0.25 
0.456571 0.595015 0 
0.532666 0.694184 -0.216506 
0.618718 0.618718 -0.216506 
0.608762 0.793353 -0.25 
0.740562 0.965119 -0.125 
0.8602 0.8602 -0.125 
0.760952 0.991691 0 
0.5625 0.974279 0.216506 
0.684857 0.892522 0.216506 
0.532666 0.694184 0.216506 
0.391747 0.678525 0.125 
0.476961 0.621587 0.125 
0.391747 0.678525 -0.125 
0.476961 0.621587 -0.125 
0.4375 0.757772 -0.216506 
0.5625 0.974279 -0.216506 
0.684857 0.892522 -0.216506 
0.608253 1.05352 -0.125 
0.625 1.08253 0 
0.608253 1.05352 0.125 
0.382684 0.923879 0.25 
0.5 0.866025 0.25 
0.334848 0.808394 0.216506 
0.4375 0.757772 0.216506 
0.287013 0.69291 0 
0.375 0.649519 0 
0.334848 0.808394 -0.216506 
0.382684 0.923879 -0.25 
0.5 0.866025 -0.25 
0.478355 1.15485 0 
0.314855 1.17506 0.125 
0.465537 1.1239 0.125 
0.430519 1.03936 0.216506 
0.258819 0.965926 0.25 
0.29983 0.723854 0.125 
0.29983 0.723854 -0.125 
0.258819 0.965926 -0.25 
0.430519 1.03936 -0.216506 
0.465537 1.1239 -0.125 
0.314855 1.17506 -0.125 
0.323524 1.20741 0 
0.158786 1.2061 0.125 
0.291171 1.08667 0.216506 
0.130526 0.991445 0.25 
0.226467 0.845185 0.216506 
0.202783 0.756797 0.125 
0.102266 0.776791 0.125 
0.097895 0.743584 0 
0.194114 0.724444 0 
0.102266 0.776791 -0.125 
0.202783 0.756797 -0.125 
0.226467 0.845185 -0.216506 
0.130526 0.991445 -0.25 
0.146842 1.11538 -0.216506 
0.158786 1.2061 -0.125 
0.291171 1.08667 -0.216506 
0.163158 1.23931 0 
0.146842 1.11538 0.216506 
0 1.125 0.216506 
0 0.875 0.216506 
0 0.783494 0.125 
0.11421 0.867514 0.216506 
0 0.75 0 
0 0.875 -0.216506 
0 1 -0.25 
0.11421 0.867514 -0.216506 
0 1.21651 -0.125 
-0.158786 1.2061 0.125 
0 1.21651 0.125 
-0.146842 1.11538 0.216506 
0 1 0.25 
-0.102267 0.776791 0.125 
-0.114211 0.867514 -0.216506 
0 0.783494 -0.125 
-0.146842 1.11538 -0.216506 
-0.158786 1.2061 -0.125 
0 1.125 -0.216506 
0 1.25 0 
-0.314855 1.17506 0.125 
-0.163158 1.23931 0 
-0.291171 1.08667 0.216506 
-0.258819 0.965926 0.25 
-0.130526 0.991445 0.25 
-0.114211 0.867514 0.216506 
-0.202783 0.756797 0.125 
-0.097895 0.743584 0 
-0.102267 0.776791 -0.125 
-0.202783 0.756797 -0.125 
-0.226467 0.845185 -0.216506 
-0.130526 0.991445 -0.25 
-0.323524 1.20741 0 
-0.465537 1.1239 0.125 
-0.430519 1.03936 0.216506 
-0.382684 0.92388 0.25 
-0.226467 0.845185 0.216506 
-0.29983 0.723854 0.125 
-0.194114 0.724444 0 
-0.382684 0.92388 -0.25 
-0.258819 0.965926 -0.25 
-0.291171 1.08667 -0.216506 
-0.465537 1.1239 -0.125 
-0.314855 1.17506 -0.125 
-0.608253 1.05352 0.125 
-0.5625 0.974279 0.216506 
-0.334848 0.808395 0.216506 
-0.375 0.649519 0 
-0.287013 0.69291 0 
-0.29983 0.723854 -0.125 
-0.391747 0.678525 -0.125 
-0.334848 0.808395 -0.216506 
-0.5625 0.974279 -0.216506 
-0.430519 1.03936 -0.216506 
-0.608253 1.05352 -0.125 
-0.478354 1.15485 0 
-0.740562 0.965119 0.125 
-0.684857 0.892522 0.216506 
-0.5 0.866026 0.25 
-0.532666 0.694184 0.216506 
-0.4375 0.757772 0.216506 
-0.391747 0.678525 0.125 
-0.476961 0.621587 0.125 
-0.456571 0.595015 0 
-0.532666 0.694184 -0.216506 
-0.4375 0.757772 -0.216506 
-0.5 0.866026 -0.25 
-0.608761 0.793353 -0.25 
-0.625 1.08253 0 
-0.760952 0.991692 0 
-0.883884 0.883883 0 
-0.8602 0.8602 0.125 
-0.608761 0.793353 0.25 
-0.618719 0.618718 0.216506 
-0.554014 0.554013 0.125 
-0.53033 0.53033 0 
-0.476961 0.621587 -0.125 
-0.618719 0.618718 -0.216506 
-0.707107 0.707107 -0.25 
-0.795495 0.795495 -0.216506 
-0.684857 0.892522 -0.216506 
-0.740562 0.965119 -0.125 
-0.965119 0.740562 0.125 
-0.795495 0.795495 0.216506 
-0.892523 0.684857 0.216506 
-0.793353 0.608761 0.25 
-0.707107 0.707107 0.25 
-0.554014 0.554013 -0.125 
-0.694184 0.532666 -0.216506 
-0.793353 0.608761 -0.25 
-0.8602 0.8602 -0.125 
-0.757772 0.4375 0.216506 
-0.694184 0.532666 0.216506 
-0.621587 0.476961 0.125 
-0.595015 0.456571 0 
-0.649519 0.375 0 
-0.678525 0.391747 -0.125 
-0.621587 0.476961 -0.125 
-0.757772 0.4375 -0.216506 
-0.974279 0.5625 -0.216506 
-0.892523 0.684857 -0.216506 
-0.965119 0.740562 -0.125 
-0.991692 0.760952 0 
-1.08253 0.625 0 
-1.1239 0.465537 0.125 
-1.05352 0.608253 0.125 
-0.974279 0.5625 0.216506 
-0.866025 0.5 0.25 
-0.923879 0.382683 0.25 
-0.678525 0.391747 0.125 
-0.69291 0.287013 0 
-0.723854 0.29983 -0.125 
-0.923879 0.382683 -0.25 
-0.866025 0.5 -0.25 
-1.05352 0.608253 -0.125 
-1.1239 0.465537 -0.125 
-1.15485 0.478354 0 
-1.03936 0.430519 0.216506 
-0.965926 0.258819 0.25 
-0.808394 0.334848 0.216506 
-0.723854 0.29983 0.125 
-0.756797 0.202783 -0.125 
-0.808394 0.334848 -0.216506 
-0.965926 0.258819 -0.25 
-1.08667 0.291171 -0.216506 
-1.03936 0.430519 -0.216506 
-1.17506 0.314855 -0.125 
-1.20741 0.323524 0 
-1.17506 0.314855 0.125 
-1.2061 0.158786 0.125 
-1.08667 0.291171 0.216506 
-0.867514 0.114211 0.216506 
-0.845185 0.226467 0.216506 
-0.776791 0.102267 0.125 
-0.756797 0.202783 0.125 
-0.724444 0.194114 0 
-0.776791 0.102267 -0.125 
-0.867514 0.114211 -0.216506 
-0.845185 0.226467 -0.216506 
-1.2061 0.158786 -0.125 
-1.23931 0.163158 0 
-1.11538 0.146842 0.216506 
-1 0 0.25 
-0.991445 0.130526 0.25 
-0.875 0 0.216506 
-0.783494 0 0.125 
-0.75 0 0 
-0.743584 0.097895 0 
-0.783494 0 -0.125 
-0.875 0 -0.216506 
-0.991445 0.130526 -0.25 
-1 0 -0.25 
-1.125 0 -0.216506 
-1.11538 0.146842 -0.216506 
-1.21651 0 -0.125 
-1.25 0 0 
-1.2061 -0.158786 0.125 
-1.21651 0 0.125 
-1.125 0 0.216506 
-0.991445 -0.130526 -0.25 
-1.11538 -0.146842 -0.216506 
-1.2061 -0.158786 -0.125 
-1.23931 -0.163158 0 
-1.17506 -0.314855 0.125 
-1.11538 -0.146842 0.216506 
-0.991445 -0.130526 0.25 
-0.965926 -0.258819 0.25 
-0.845185 -0.226467 0.216506 
-0.867514 -0.114211 0.216506 
-0.756797 -0.202783 0.125 
-0.776791 -0.102267 0.125 
-0.743584 -0.097895 0 
-0.776791 -0.102267 -0.125 
-0.845185 -0.226467 -0.216506 
-0.867514 -0.114211 -0.216506 
-0.965926 -0.258819 -0.25 
-1.08667 -0.291171 -0.216506 
-1.20741 -0.323524 0 
-1.08667 -0.291171 0.216506 
-1.03937 -0.430518 0.216506 
-0.808395 -0.334848 0.216506 
-0.69291 -0.287012 0 
-0.724444 -0.194114 0 
-0.756797 -0.202783 -0.125 
-0.808395 -0.334848 -0.216506 
-0.92388 -0.382683 -0.25 
-1.03937 -0.430518 -0.216506 
-1.12391 -0.465536 -0.125 
-1.17506 -0.314855 -0.125 
-1.15485 -0.478354 0 
-1.05353 -0.608253 0.125 
-1.12391 -0.465536 0.125 
-0.92388 -0.382683 0.25 
-0.723854 -0.29983 0.125 
-0.678526 -0.391747 0.125 
-0.649519 -0.375 0 
-0.678526 -0.391747 -0.125 
-0.723854 -0.29983 -0.125 
-0.757772 -0.4375 -0.216506 
-0.866026 -0.5 -0.25 
-0.974279 -0.5625 -0.216506 
-1.05353 -0.608253 -0.125 
-1.08253 -0.625 0 
-0.974279 -0.5625 0.216506 
-0.793353 -0.608761 0.25 
-0.866026 -0.5 0.25 
-0.757772 -0.4375 0.216506 
-0.694184 -0.532666 0.216506 
-0.595015 -0.456571 0 
-0.621587 -0.476961 -0.125 
-0.793353 -0.608761 -0.25 
-0.892523 -0.684857 -0.216506 
-0.883884 -0.883883 0 
-0.8602 -0.8602 0.125 
-0.965119 -0.740562 0.125 
-0.892523 -0.684857 0.216506 
-0.795495 -0.795495 0.216506 
-0.618719 -0.618718 0.216506 
-0.621587 -0.476961 0.125 
-0.554014 -0.554013 0.125 
-0.554014 -0.554013 -0.125 
-0.694184 -0.532666 -0.216506 
-0.707107 -0.707107 -0.25 
-0.965119 -0.740562 -0.125 
-0.991692 -0.760952 0 
-0.608762 -0.793353 0.25 
-0.532667 -0.694184 0.216506 
-0.707107 -0.707107 0.25 
-0.476961 -0.621587 0.125 
-0.456571 -0.595015 0 
-0.53033 -0.53033 0 
-0.618719 -0.618718 -0.216506 
-0.532667 -0.694184 -0.216506 
-0.795495 -0.795495 -0.216506 
-0.684857 -0.892522 -0.216506 
-0.8602 -0.8602 -0.125 
-0.760952 -0.991691 0 
-0.608253 -1.05352 0.125 
-0.740563 -0.965119 0.125 
-0.5625 -0.974279 0.216506 
-0.684857 -0.892522 0.216506 
-0.391747 -0.678525 0.125 
-0.476961 -0.621587 -0.125 
-0.4375 -0.757772 -0.216506 
-0.608762 -0.793353 -0.25 
-0.5625 -0.974279 -0.216506 
-0.608253 -1.05352 -0.125 
-0.740563 -0.965119 -0.125 
-0.625 -1.08253 0 
-0.382684 -0.92388 0.25 
-0.5 -0.866026 0.25 
-0.334848 -0.808395 0.216506 
-0.4375 -0.757772 0.216506 
-0.375 -0.649519 0 
-0.391747 -0.678525 -0.125 
-0.29983 -0.723854 -0.125 
-0.334848 -0.808395 -0.216506 
-0.382684 -0.92388 -0.25 
-0.5 -0.866026 -0.25 
-0.430519 -1.03936 -0.216506 
-0.465537 -1.1239 -0.125 
-0.323524 -1.20741 0 
-0.465537 -1.1239 0.125 
-0.430519 -1.03936 0.216506 
-0.29983 -0.723854 0.125 
-0.202783 -0.756797 0.125 
-0.287013 -0.69291 0 
-0.202783 -0.756797 -0.125 
-0.226467 -0.845185 -0.216506 
-0.291172 -1.08667 -0.216506 
-0.314855 -1.17506 -0.125 
-0.478354 -1.15485 0 
-0.158787 -1.2061 0.125 
-0.314855 -1.17506 0.125 
-0.291172 -1.08667 0.216506 
-0.130527 -0.991445 0.25 
-0.258819 -0.965926 0.25 
-0.114211 -0.867514 0.216506 
-0.226467 -0.845185 0.216506 
-0.194114 -0.724444 0 
-0.114211 -0.867514 -0.216506 
-0.258819 -0.965926 -0.25 
0 -1.21651 0.125 
0 -1.125 0.216506 
-0.146843 -1.11538 0.216506 
-0.102267 -0.776791 0.125 
-0.097895 -0.743584 0 
-0.102267 -0.776791 -0.125 
0 -0.875 -0.216506 
-0.130527 -0.991445 -0.25 
-0.146843 -1.11538 -0.216506 
-0.158787 -1.2061 -0.125 
0 -1.25 0 
-0.163159 -1.23931 0 
0.158786 -1.2061 0.125 
0 -1 0.25 
0.130526 -0.991445 0.25 
0.11421 -0.867514 0.216506 
0 -0.875 0.216506 
0 -0.783494 0.125 
0 -0.75 0 
0 -0.783494 -0.125 
0.11421 -0.867514 -0.216506 
0 -1 -0.25 
0.146842 -1.11538 -0.216506 
0 -1.125 -0.216506 
0 -1.21651 -0.125 
0.163158 -1.23931 0 
0.323523 -1.20741 0 
0.146842 -1.11538 0.216506 
0.226466 -0.845185 0.216506 
0.102266 -0.776791 0.125 
0.097895 -0.743584 0 
0.202783 -0.756797 -0.125 
0.102266 -0.776791 -0.125 
0.226466 -0.845185 -0.216506 
0.130526 -0.991445 -0.25 
0.258819 -0.965926 -0.25 
0.291171 -1.08667 -0.216506 
0.314854 -1.17506 -0.125 
0.158786 -1.2061 -0.125 
0.314854 -1.17506 0.125 
0.465537 -1.1239 0.125 
0.291171 -1.08667 0.216506 
0.430519 -1.03936 0.216506 
0.334848 -0.808394 0.216506 
0.258819 -0.965926 0.25 
0.202783 -0.756797 0.125 
0.194114 -0.724445 0 
0.29983 -0.723854 -0.125 
0.334848 -0.808394 -0.216506 
0.430519 -1.03936 -0.216506 
0.465537 -1.1239 -0.125 
0.478355 -1.15485 0 
0.608253 -1.05352 0.125 
0.382684 -0.923879 0.25 
0.29983 -0.723854 0.125 
0.375 -0.649519 0 
0.287013 -0.69291 0 
0.5 -0.866025 -0.25 
0.382684 -0.923879 -0.25 
0.5625 -0.974279 -0.216506 
0.740562 -0.96512 0.125 
0.684856 -0.892523 0.216506 
0.5625 -0.974279 0.216506 
0.5 -0.866025 0.25 
0.532666 -0.694184 0.216506 
0.4375 -0.757772 0.216506 
0.476961 -0.621587 0.125 
0.391747 -0.678525 0.125 
0.476961 -0.621587 -0.125 
0.391747 -0.678525 -0.125 
0.4375 -0.757772 -0.216506 
0.608761 -0.793354 -0.25 
0.740562 -0.96512 -0.125 
0.608253 -1.05352 -0.125 
0.625 -1.08253 0 
0.760952 -0.991692 0 
0.860199 -0.8602 0.125 
0.795495 -0.795496 0.216506 
0.707106 -0.707107 0.25 
0.608761 -0.793354 0.25 
0.456571 -0.595015 0 
0.53033 -0.53033 0 
0.532666 -0.694184 -0.216506 
0.684856 -0.892523 -0.216506 
0.860199 -0.8602 -0.125 
0.965119 -0.740562 0.125 
0.618718 -0.618719 0.216506 
0.554013 -0.554014 0.125 
0.621587 -0.476961 0.125 
0.595015 -0.456571 0 
0.554013 -0.554014 -0.125 
0.621587 -0.476961 -0.125 
0.618718 -0.618719 -0.216506 
0.694184 -0.532666 -0.216506 
0.707106 -0.707107 -0.25 
0.795495 -0.795496 -0.216506 
0.965119 -0.740562 -0.125 
0.883883 -0.883884 0 
1.05352 -0.608253 0.125 
0.892523 -0.684857 0.216506 
0.974279 -0.5625 0.216506 
0.866025 -0.5 0.25 
0.793353 -0.608761 0.25 
0.757772 -0.4375 0.216506 
0.694184 -0.532666 0.216506 
0.678525 -0.391747 -0.125 
0.757772 -0.4375 -0.216506 
0.793353 -0.608761 -0.25 
0.892523 -0.684857 -0.216506 
0.991692 -0.760952 0 
1.08253 -0.625 0 
1.15485 -0.478355 0 
1.1239 -0.465537 0.125 
1.03936 -0.430519 0.216506 
0.678525 -0.391747 0.125 
0.649519 -0.375 0 
0.866025 -0.5 -0.25 
0.974279 -0.5625 -0.216506 
1.03936 -0.430519 -0.216506 
1.05352 -0.608253 -0.125 
1.20741 -0.323523 0 
1.17506 -0.314855 0.125 
0.923879 -0.382684 0.25 
0.808394 -0.334848 0.216506 
0.756797 -0.202783 0.125 
0.723854 -0.29983 0.125 
0.692909 -0.287013 0 
0.724444 -0.194114 0 
0.723854 -0.29983 -0.125 
0.845185 -0.226466 -0.216506 
0.808394 -0.334848 -0.216506 
0.923879 -0.382684 -0.25 
0.965926 -0.258819 -0.25 
1.08667 -0.291171 -0.216506 
1.17506 -0.314855 -0.125 
1.1239 -0.465537 -0.125 
1.2061 -0.158786 0.125 
1.08667 -0.291171 0.216506 
0.965926 -0.258819 0.25 
0.845185 -0.226466 0.216506 
0.776791 -0.102266 0.125 
0.743584 -0.097895 0 
0.756797 -0.202783 -0.125 
0.991445 -0.130526 -0.25 
1.11538 -0.146842 -0.216506 
1.2061 -0.158786 -0.125 
1.21651 0 0.125 
1.125 0 0.216506 
1.11538 -0.146842 0.216506 
0.991445 -0.130526 0.25 
1 0 0.25 
0.867514 -0.11421 0.216506 
0.776791 -0.102266 -0.125 
0.867514 -0.11421 -0.216506 
1 0 -0.25 
1.125 0 -0.216506 
1.23931 -0.163158 0 
3 15 0 14 
3 14 0 565 
3 565 0 1 
3 565 1 566 
3 566 1 2 
3 566 2 569 
3 569 2 17 
3 569 17 3 
3 3 17 4 
3 3 4 5 
3 5 4 6 
3 5 6 7 
3 7 6 20 
3 7 20 8 
3 8 20 10 
3 8 10 9 
3 9 10 22 
3 9 22 573 
3 573 22 11 
3 573 11 574 
3 574 11 12 
3 574 12 13 
3 14 13 12 
3 14 12 15 
3 15 39 26 
3 26 0 15 
3 0 26 27 
3 0 27 1 
3 1 27 28 
3 1 28 2 
3 2 28 16 
3 2 16 17 
3 17 16 31 
3 17 31 4 
3 4 31 18 
3 4 18 6 
3 6 18 19 
3 6 19 20 
3 20 19 35 
3 20 35 10 
3 10 35 36 
3 10 36 22 
3 22 36 21 
3 22 21 11 
3 11 21 23 
3 11 23 12 
3 12 23 39 
3 12 39 15 
3 39 24 25 
3 39 25 26 
3 26 25 41 
3 26 41 27 
3 27 41 29 
3 27 29 28 
3 28 29 43 
3 28 43 16 
3 16 43 30 
3 16 30 31 
3 31 30 32 
3 31 32 18 
3 18 32 33 
3 18 33 19 
3 19 33 34 
3 19 34 35 
3 35 34 37 
3 35 37 36 
3 36 37 38 
3 36 38 21 
3 21 38 46 
3 21 46 23 
3 23 46 24 
3 23 24 39 
3 24 61 40 
3 24 40 25 
3 25 40 48 
3 25 48 41 
3 41 48 50 
3 41 50 29 
3 29 50 42 
3 29 42 43 
3 43 42 44 
3 43 44 30 
3 30 44 53 
3 30 53 32 
3 32 53 54 
3 32 54 33 
3 33 54 56 
3 33 56 34 
3 34 56 57 
3 34 57 37 
3 37 57 59 
3 37 59 38 
3 38 59 45 
3 38 45 46 
3 46 45 61 
3 46 61 24 
3 61 63 47 
3 61 47 40 
3 40 47 64 
3 40 64 48 
3 48 64 49 
3 48 49 50 
3 50 49 51 
3 50 51 42 
3 42 51 52 
3 42 52 44 
3 44 52 68 
3 44 68 53 
3 53 68 55 
3 53 55 54 
3 54 55 70 
3 54 70 56 
3 56 70 58 
3 56 58 57 
3 57 58 73 
3 57 73 59 
3 59 73 60 
3 59 60 45 
3 45 60 63 
3 45 63 61 
3 63 74 62 
3 63 62 47 
3 47 62 76 
3 47 76 64 
3 64 76 78 
3 64 78 49 
3 49 78 65 
3 49 65 51 
3 51 65 66 
3 51 66 52 
3 52 66 67 
3 52 67 68 
3 68 67 69 
3 68 69 55 
3 55 69 81 
3 55 81 70 
3 70 81 71 
3 70 71 58 
3 58 71 72 
3 58 72 73 
3 73 72 84 
3 73 84 60 
3 60 84 74 
3 60 74 63 
3 74 85 75 
3 74 75 62 
3 62 75 87 
3 62 87 76 
3 76 87 77 
3 76 77 78 
3 78 77 88 
3 78 88 65 
3 65 88 90 
3 65 90 66 
3 66 90 79 
3 66 79 67 
3 67 79 92 
3 67 92 69 
3 69 92 80 
3 69 80 81 
3 81 80 82 
3 81 82 71 
3 71 82 95 
3 71 95 72 
3 72 95 83 
3 72 83 84 
3 84 83 85 
3 84 85 74 
3 85 97 98 
3 85 98 75 
3 75 98 86 
3 75 86 87 
3 87 86 100 
3 87 100 77 
3 77 100 102 
3 77 102 88 
3 88 102 89 
3 88 89 90 
3 90 89 104 
3 90 104 79 
3 79 104 91 
3 79 91 92 
3 92 91 93 
3 92 93 80 
3 80 93 107 
3 80 107 82 
3 82 107 94 
3 82 94 95 
3 95 94 96 
3 95 96 83 
3 83 96 97 
3 83 97 85 
3 97 108 110 
3 97 110 98 
3 98 110 111 
3 98 111 86 
3 86 111 99 
3 86 99 100 
3 100 99 101 
3 100 101 102 
3 102 101 113 
3 102 113 89 
3 89 113 103 
3 89 103 104 
3 104 103 114 
3 104 114 91 
3 91 114 105 
3 91 105 93 
3 93 105 106 
3 93 106 107 
3 107 106 116 
3 107 116 94 
3 94 116 117 
3 94 117 96 
3 96 117 108 
3 96 108 97 
3 108 119 109 
3 108 109 110 
3 110 109 121 
3 110 121 111 
3 111 121 112 
3 111 112 99 
3 99 112 123 
3 99 123 101 
3 101 123 124 
3 101 124 113 
3 113 124 127 
3 113 127 103 
3 103 127 129 
3 103 129 114 
3 114 129 130 
3 114 130 105 
3 105 130 115 
3 105 115 106 
3 106 115 134 
3 106 134 116 
3 116 134 118 
3 116 118 117 
3 117 118 119 
3 117 119 108 
3 119 135 120 
3 119 120 109 
3 109 120 136 
3 109 136 121 
3 121 136 122 
3 121 122 112 
3 112 122 140 
3 112 140 123 
3 123 140 125 
3 123 125 124 
3 124 125 126 
3 124 126 127 
3 127 126 128 
3 127 128 129 
3 129 128 144 
3 129 144 130 
3 130 144 131 
3 130 131 115 
3 115 131 132 
3 115 132 134 
3 134 132 133 
3 134 133 118 
3 118 133 135 
3 118 135 119 
3 135 156 147 
3 135 147 120 
3 120 147 137 
3 120 137 136 
3 136 137 149 
3 136 149 122 
3 122 149 138 
3 122 138 140 
3 140 138 139 
3 140 139 125 
3 125 139 141 
3 125 141 126 
3 126 141 152 
3 126 152 128 
3 128 152 142 
3 128 142 144 
3 144 142 143 
3 144 143 131 
3 131 143 155 
3 131 155 132 
3 132 155 145 
3 132 145 133 
3 133 145 156 
3 133 156 135 
3 156 158 146 
3 156 146 147 
3 147 146 148 
3 147 148 137 
3 137 148 161 
3 137 161 149 
3 149 161 162 
3 149 162 138 
3 138 162 150 
3 138 150 139 
3 139 150 164 
3 139 164 141 
3 141 164 165 
3 141 165 152 
3 152 165 151 
3 152 151 142 
3 142 151 168 
3 142 168 143 
3 143 168 153 
3 143 153 155 
3 155 153 154 
3 155 154 145 
3 145 154 158 
3 145 158 156 
3 158 169 157 
3 158 157 146 
3 146 157 159 
3 146 159 148 
3 148 159 160 
3 148 160 161 
3 161 160 173 
3 161 173 162 
3 162 173 163 
3 162 163 150 
3 150 163 175 
3 150 175 164 
3 164 175 166 
3 164 166 165 
3 165 166 167 
3 165 167 151 
3 151 167 177 
3 151 177 168 
3 168 177 178 
3 168 178 153 
3 153 178 180 
3 153 180 154 
3 154 180 169 
3 154 169 158 
3 169 192 170 
3 169 170 157 
3 157 170 171 
3 157 171 159 
3 159 171 172 
3 159 172 160 
3 160 172 183 
3 160 183 173 
3 173 183 174 
3 173 174 163 
3 163 174 185 
3 163 185 175 
3 175 185 186 
3 175 186 166 
3 166 186 188 
3 166 188 167 
3 167 188 176 
3 167 176 177 
3 177 176 190 
3 177 190 178 
3 178 190 179 
3 178 179 180 
3 180 179 192 
3 180 192 169 
3 192 205 181 
3 192 181 170 
3 170 181 182 
3 170 182 171 
3 171 182 195 
3 171 195 172 
3 172 195 197 
3 172 197 183 
3 183 197 198 
3 183 198 174 
3 174 198 184 
3 174 184 185 
3 185 184 187 
3 185 187 186 
3 186 187 202 
3 186 202 188 
3 188 202 203 
3 188 203 176 
3 176 203 189 
3 176 189 190 
3 190 189 191 
3 190 191 179 
3 179 191 205 
3 179 205 192 
3 205 206 193 
3 205 193 181 
3 181 193 194 
3 181 194 182 
3 182 194 209 
3 182 209 195 
3 195 209 196 
3 195 196 197 
3 197 196 199 
3 197 199 198 
3 198 199 200 
3 198 200 184 
3 184 200 213 
3 184 213 187 
3 187 213 201 
3 187 201 202 
3 202 201 204 
3 202 204 203 
3 203 204 217 
3 203 217 189 
3 189 217 218 
3 189 218 191 
3 191 218 206 
3 191 206 205 
3 206 207 208 
3 206 208 193 
3 193 208 220 
3 193 220 194 
3 194 220 223 
3 194 223 209 
3 209 223 210 
3 209 210 196 
3 196 210 211 
3 196 211 199 
3 199 211 212 
3 199 212 200 
3 200 212 224 
3 200 224 213 
3 213 224 214 
3 213 214 201 
3 201 214 215 
3 201 215 204 
3 204 215 216 
3 204 216 217 
3 217 216 227 
3 217 227 218 
3 218 227 207 
3 218 207 206 
3 207 239 219 
3 207 219 208 
3 208 219 221 
3 208 221 220 
3 220 221 222 
3 220 222 223 
3 223 222 229 
3 223 229 210 
3 210 229 230 
3 210 230 211 
3 211 230 231 
3 211 231 212 
3 212 231 234 
3 212 234 224 
3 224 234 225 
3 224 225 214 
3 214 225 226 
3 214 226 215 
3 215 226 237 
3 215 237 216 
3 216 237 238 
3 216 238 227 
3 227 238 239 
3 227 239 207 
3 239 240 242 
3 239 242 219 
3 219 242 243 
3 219 243 221 
3 221 243 244 
3 221 244 222 
3 222 244 228 
3 222 228 229 
3 229 228 246 
3 229 246 230 
3 230 246 232 
3 230 232 231 
3 231 232 233 
3 231 233 234 
3 234 233 235 
3 234 235 225 
3 225 235 250 
3 225 250 226 
3 226 250 236 
3 226 236 237 
3 237 236 251 
3 237 251 238 
3 238 251 240 
3 238 240 239 
3 240 253 241 
3 240 241 242 
3 242 241 254 
3 242 254 243 
3 243 254 245 
3 243 245 244 
3 244 245 256 
3 244 256 228 
3 228 256 257 
3 228 257 246 
3 246 257 247 
3 246 247 232 
3 232 247 248 
3 232 248 233 
3 233 248 259 
3 233 259 235 
3 235 259 249 
3 235 249 250 
3 250 249 262 
3 250 262 236 
3 236 262 252 
3 236 252 251 
3 251 252 253 
3 251 253 240 
3 253 264 265 
3 253 265 241 
3 241 265 267 
3 241 267 254 
3 254 267 255 
3 254 255 245 
3 245 255 269 
3 245 269 256 
3 256 269 271 
3 256 271 257 
3 257 271 272 
3 257 272 247 
3 247 272 258 
3 247 258 248 
3 248 258 275 
3 248 275 259 
3 259 275 260 
3 259 260 249 
3 249 260 261 
3 249 261 262 
3 262 261 263 
3 262 263 252 
3 252 263 264 
3 252 264 253 
3 264 277 266 
3 264 266 265 
3 265 266 278 
3 265 278 267 
3 267 278 280 
3 267 280 255 
3 255 280 268 
3 255 268 269 
3 269 268 270 
3 269 270 271 
3 271 270 284 
3 271 284 272 
3 272 284 273 
3 272 273 258 
3 258 273 274 
3 258 274 275 
3 275 274 287 
3 275 287 260 
3 260 287 290 
3 260 290 261 
3 261 290 276 
3 261 276 263 
3 263 276 277 
3 263 277 264 
3 277 292 294 
3 277 294 266 
3 266 294 295 
3 266 295 278 
3 278 295 279 
3 278 279 280 
3 280 279 281 
3 280 281 268 
3 268 281 282 
3 268 282 270 
3 270 282 283 
3 270 283 284 
3 284 283 285 
3 284 285 273 
3 273 285 286 
3 273 286 274 
3 274 286 288 
3 274 288 287 
3 287 288 289 
3 287 289 290 
3 290 289 291 
3 290 291 276 
3 276 291 292 
3 276 292 277 
3 292 299 293 
3 292 293 294 
3 294 293 301 
3 294 301 295 
3 295 301 302 
3 295 302 279 
3 279 302 305 
3 279 305 281 
3 281 305 307 
3 281 307 282 
3 282 307 308 
3 282 308 283 
3 283 308 309 
3 283 309 285 
3 285 309 311 
3 285 311 286 
3 286 311 296 
3 286 296 288 
3 288 296 297 
3 288 297 289 
3 289 297 298 
3 289 298 291 
3 291 298 299 
3 291 299 292 
3 299 314 300 
3 299 300 293 
3 293 300 315 
3 293 315 301 
3 301 315 303 
3 301 303 302 
3 302 303 304 
3 302 304 305 
3 305 304 306 
3 305 306 307 
3 307 306 319 
3 307 319 308 
3 308 319 320 
3 308 320 309 
3 309 320 310 
3 309 310 311 
3 311 310 312 
3 311 312 296 
3 296 312 313 
3 296 313 297 
3 297 313 325 
3 297 325 298 
3 298 325 314 
3 298 314 299 
3 314 326 328 
3 314 328 300 
3 300 328 316 
3 300 316 315 
3 315 316 329 
3 315 329 303 
3 303 329 317 
3 303 317 304 
3 304 317 330 
3 304 330 306 
3 306 330 318 
3 306 318 319 
3 319 318 334 
3 319 334 320 
3 320 334 321 
3 320 321 310 
3 310 321 322 
3 310 322 312 
3 312 322 323 
3 312 323 313 
3 313 323 324 
3 313 324 325 
3 325 324 326 
3 325 326 314 
3 326 339 327 
3 326 327 328 
3 328 327 340 
3 328 340 316 
3 316 340 342 
3 316 342 329 
3 329 342 343 
3 329 343 317 
3 317 343 331 
3 317 331 330 
3 330 331 332 
3 330 332 318 
3 318 332 333 
3 318 333 334 
3 334 333 335 
3 334 335 321 
3 321 335 336 
3 321 336 322 
3 322 336 337 
3 322 337 323 
3 323 337 338 
3 323 338 324 
3 324 338 339 
3 324 339 326 
3 339 361 351 
3 339 351 327 
3 327 351 352 
3 327 352 340 
3 340 352 341 
3 340 341 342 
3 342 341 344 
3 342 344 343 
3 343 344 355 
3 343 355 331 
3 331 355 345 
3 331 345 332 
3 332 345 346 
3 332 346 333 
3 333 346 358 
3 333 358 335 
3 335 358 347 
3 335 347 336 
3 336 347 348 
3 336 348 337 
3 337 348 360 
3 337 360 338 
3 338 360 361 
3 338 361 339 
3 361 349 350 
3 361 350 351 
3 351 350 353 
3 351 353 352 
3 352 353 364 
3 352 364 341 
3 341 364 354 
3 341 354 344 
3 344 354 356 
3 344 356 355 
3 355 356 367 
3 355 367 345 
3 345 367 357 
3 345 357 346 
3 346 357 368 
3 346 368 358 
3 358 368 359 
3 358 359 347 
3 347 359 370 
3 347 370 348 
3 348 370 372 
3 348 372 360 
3 360 372 349 
3 360 349 361 
3 349 373 375 
3 349 375 350 
3 350 375 377 
3 350 377 353 
3 353 377 362 
3 353 362 364 
3 364 362 363 
3 364 363 354 
3 354 363 365 
3 354 365 356 
3 356 365 366 
3 356 366 367 
3 367 366 379 
3 367 379 357 
3 357 379 369 
3 357 369 368 
3 368 369 381 
3 368 381 359 
3 359 381 371 
3 359 371 370 
3 370 371 384 
3 370 384 372 
3 372 384 373 
3 372 373 349 
3 373 385 374 
3 373 374 375 
3 375 374 376 
3 375 376 377 
3 377 376 387 
3 377 387 362 
3 362 387 389 
3 362 389 363 
3 363 389 378 
3 363 378 365 
3 365 378 390 
3 365 390 366 
3 366 390 391 
3 366 391 379 
3 379 391 380 
3 379 380 369 
3 369 380 395 
3 369 395 381 
3 381 395 382 
3 381 382 371 
3 371 382 383 
3 371 383 384 
3 384 383 385 
3 384 385 373 
3 385 408 399 
3 385 399 374 
3 374 399 400 
3 374 400 376 
3 376 400 386 
3 376 386 387 
3 387 386 388 
3 387 388 389 
3 389 388 401 
3 389 401 378 
3 378 401 403 
3 378 403 390 
3 390 403 392 
3 390 392 391 
3 391 392 393 
3 391 393 380 
3 380 393 394 
3 380 394 395 
3 395 394 396 
3 395 396 382 
3 382 396 397 
3 382 397 383 
3 383 397 408 
3 383 408 385 
3 408 398 410 
3 408 410 399 
3 399 410 411 
3 399 411 400 
3 400 411 413 
3 400 413 386 
3 386 413 415 
3 386 415 388 
3 388 415 402 
3 388 402 401 
3 401 402 416 
3 401 416 403 
3 403 416 404 
3 403 404 392 
3 392 404 405 
3 392 405 393 
3 393 405 418 
3 393 418 394 
3 394 418 406 
3 394 406 396 
3 396 406 407 
3 396 407 397 
3 397 407 398 
3 397 398 408 
3 398 430 409 
3 398 409 410 
3 410 409 421 
3 410 421 411 
3 411 421 412 
3 411 412 413 
3 413 412 414 
3 413 414 415 
3 415 414 422 
3 415 422 402 
3 402 422 423 
3 402 423 416 
3 416 423 424 
3 416 424 404 
3 404 424 417 
3 404 417 405 
3 405 417 426 
3 405 426 418 
3 418 426 427 
3 418 427 406 
3 406 427 428 
3 406 428 407 
3 407 428 430 
3 407 430 398 
3 430 429 419 
3 430 419 409 
3 409 419 420 
3 409 420 421 
3 421 420 432 
3 421 432 412 
3 412 432 435 
3 412 435 414 
3 414 435 436 
3 414 436 422 
3 422 436 437 
3 422 437 423 
3 423 437 438 
3 423 438 424 
3 424 438 425 
3 424 425 417 
3 417 425 440 
3 417 440 426 
3 426 440 442 
3 426 442 427 
3 427 442 443 
3 427 443 428 
3 428 443 429 
3 428 429 430 
3 429 444 431 
3 429 431 419 
3 419 431 446 
3 419 446 420 
3 420 446 433 
3 420 433 432 
3 432 433 434 
3 432 434 435 
3 435 434 448 
3 435 448 436 
3 436 448 449 
3 436 449 437 
3 437 449 451 
3 437 451 438 
3 438 451 439 
3 438 439 425 
3 425 439 453 
3 425 453 440 
3 440 453 441 
3 440 441 442 
3 442 441 457 
3 442 457 443 
3 443 457 444 
3 443 444 429 
3 444 445 458 
3 444 458 431 
3 431 458 460 
3 431 460 446 
3 446 460 463 
3 446 463 433 
3 433 463 447 
3 433 447 434 
3 434 447 464 
3 434 464 448 
3 448 464 465 
3 448 465 449 
3 449 465 450 
3 449 450 451 
3 451 450 452 
3 451 452 439 
3 439 452 454 
3 439 454 453 
3 453 454 455 
3 453 455 441 
3 441 455 456 
3 441 456 457 
3 457 456 445 
3 457 445 444 
3 445 470 459 
3 445 459 458 
3 458 459 461 
3 458 461 460 
3 460 461 472 
3 460 472 463 
3 463 472 462 
3 463 462 447 
3 447 462 473 
3 447 473 464 
3 464 473 475 
3 464 475 465 
3 465 475 466 
3 465 466 450 
3 450 466 467 
3 450 467 452 
3 452 467 477 
3 452 477 454 
3 454 477 468 
3 454 468 455 
3 455 468 469 
3 455 469 456 
3 456 469 470 
3 456 470 445 
3 470 493 471 
3 470 471 459 
3 459 471 481 
3 459 481 461 
3 461 481 482 
3 461 482 472 
3 472 482 484 
3 472 484 462 
3 462 484 486 
3 462 486 473 
3 473 486 474 
3 473 474 475 
3 475 474 488 
3 475 488 466 
3 466 488 489 
3 466 489 467 
3 467 489 476 
3 467 476 477 
3 477 476 478 
3 477 478 468 
3 468 478 492 
3 468 492 469 
3 469 492 493 
3 469 493 470 
3 493 494 479 
3 493 479 471 
3 471 479 480 
3 471 480 481 
3 481 480 498 
3 481 498 482 
3 482 498 483 
3 482 483 484 
3 484 483 485 
3 484 485 486 
3 486 485 499 
3 486 499 474 
3 474 499 487 
3 474 487 488 
3 488 487 501 
3 488 501 489 
3 489 501 490 
3 489 490 476 
3 476 490 502 
3 476 502 478 
3 478 502 491 
3 478 491 492 
3 492 491 494 
3 492 494 493 
3 494 516 495 
3 494 495 479 
3 479 495 496 
3 479 496 480 
3 480 496 497 
3 480 497 498 
3 498 497 505 
3 498 505 483 
3 483 505 506 
3 483 506 485 
3 485 506 500 
3 485 500 499 
3 499 500 509 
3 499 509 487 
3 487 509 511 
3 487 511 501 
3 501 511 513 
3 501 513 490 
3 490 513 514 
3 490 514 502 
3 502 514 503 
3 502 503 491 
3 491 503 516 
3 491 516 494 
3 516 528 504 
3 516 504 495 
3 495 504 518 
3 495 518 496 
3 496 518 521 
3 496 521 497 
3 497 521 523 
3 497 523 505 
3 505 523 507 
3 505 507 506 
3 506 507 508 
3 506 508 500 
3 500 508 510 
3 500 510 509 
3 509 510 512 
3 509 512 511 
3 511 512 526 
3 511 526 513 
3 513 526 527 
3 513 527 514 
3 514 527 515 
3 514 515 503 
3 503 515 528 
3 503 528 516 
3 528 529 517 
3 528 517 504 
3 504 517 519 
3 504 519 518 
3 518 519 520 
3 518 520 521 
3 521 520 522 
3 521 522 523 
3 523 522 533 
3 523 533 507 
3 507 533 534 
3 507 534 508 
3 508 534 524 
3 508 524 510 
3 510 524 525 
3 510 525 512 
3 512 525 535 
3 512 535 526 
3 526 535 536 
3 526 536 527 
3 527 536 538 
3 527 538 515 
3 515 538 529 
3 515 529 528 
3 529 530 531 
3 529 531 517 
3 517 531 532 
3 517 532 519 
3 519 532 541 
3 519 541 520 
3 520 541 542 
3 520 542 522 
3 522 542 544 
3 522 544 533 
3 533 544 545 
3 533 545 534 
3 534 545 547 
3 534 547 524 
3 524 547 549 
3 524 549 525 
3 525 549 550 
3 525 550 535 
3 535 550 537 
3 535 537 536 
3 536 537 554 
3 536 554 538 
3 538 554 530 
3 538 530 529 
3 530 539 540 
3 530 540 531 
3 531 540 556 
3 531 556 532 
3 532 556 557 
3 532 557 541 
3 541 557 558 
3 541 558 542 
3 542 558 543 
3 542 543 544 
3 544 543 546 
3 544 546 545 
3 545 546 561 
3 545 561 547 
3 547 561 548 
3 547 548 549 
3 549 548 551 
3 549 551 550 
3 550 551 552 
3 550 552 537 
3 537 552 553 
3 537 553 554 
3 554 553 539 
3 554 539 530 
3 539 575 555 
3 539 555 540 
3 540 555 567 
3 540 567 556 
3 556 567 568 
3 556 568 557 
3 557 568 570 
3 557 570 558 
3 558 570 559 
3 558 559 543 
3 543 559 560 
3 543 560 546 
3 546 560 571 
3 546 571 561 
3 561 571 572 
3 561 572 548 
3 548 572 562 
3 548 562 551 
3 551 562 563 
3 551 563 552 
3 552 563 564 
3 552 564 553 
3 553 564 575 
3 553 575 539 
3 575 14 565 
3 575 565 555 
3 555 565 566 
3 555 566 567 
3 567 566 569 
3 567 569 568 
3 568 569 3 
3 568 3 570 
3 570 3 5 
3 570 5 559 
3 559 5 7 
3 559 7 560 
3 560 7 8 
3 560 8 571 
3 571 8 9 
3 571 9 572 
3 572 9 573 
3 572 573 562 
3 562 573 574 
3 562 574 563 
3 563 574 13 
3 563 13 564 
3 14 575 564 
3 14 564 13 
